<svg xmlns="http://www.w3.org/2000/svg" width="33" height="32" fill="none"><path fill="#888B97" d="M27.04 15.955H5.96c-.83 0-1.505.676-1.505 1.506s.676 1.506 1.506 1.506h21.078c.83 0 1.506-.676 1.506-1.506s-.676-1.506-1.506-1.506Z"/><path fill="#888B97" d="M27.178 17.982a.499.499 0 0 0-.62.345l-.04.138H6.483l-.04-.138a.501.501 0 1 0-.965.275l1.383 4.842a3.528 3.528 0 0 0 3.378 2.549H22.76a3.527 3.527 0 0 0 3.378-2.549l1.383-4.842a.5.5 0 0 0-.343-.62ZM10.24 23.985a1.51 1.51 0 0 1-1.448-1.092l-.651-2.282a.502.502 0 1 1 .965-.275l.65 2.282c.063.214.26.364.484.364a.502.502 0 0 1 0 1.003Z"/><path fill="#888B97" d="M11.203 25.041a.504.504 0 0 0-.673.225l-1.004 2.007a.503.503 0 0 0 .899.45l1.003-2.008a.503.503 0 0 0-.225-.674ZM23.474 27.274l-1.004-2.007a.502.502 0 1 0-.898.448l1.003 2.008a.502.502 0 0 0 .899-.449ZM24.615 4c-.512 0-.994.2-1.356.562l-1.593 1.593a.502.502 0 0 0 .71.71l1.593-1.592a.908.908 0 0 1 .651-.268c.504 0 .913.41.913.913v10.54a.502.502 0 1 0 1.005-.002V5.917A1.92 1.92 0 0 0 24.615 4Z"/><path fill="#888B97" d="m22.878 6.657-1.004-1.004a.497.497 0 0 0-.437-.14l-2.509.411a.503.503 0 0 0-.279.844L21.66 9.87a.5.5 0 0 0 .502.131.5.5 0 0 0 .35-.382l.502-2.51a.502.502 0 0 0-.136-.452ZM16.352 10.08a.502.502 0 0 0-.71 0l-1.003 1.004a.502.502 0 0 0 .71.71l1.003-1.004a.502.502 0 0 0 0-.71ZM18.36 12.088a.502.502 0 0 0-.71 0l-1.003 1.004a.502.502 0 0 0 .71.71l1.003-1.004a.502.502 0 0 0 0-.71ZM19.364 9.077a.502.502 0 0 0-.71 0L17.65 10.08a.502.502 0 0 0 .71.71l1.004-1.005a.502.502 0 0 0 0-.71Z"/></svg>