<svg xmlns="http://www.w3.org/2000/svg" width="32" height="32" fill="none"><path fill="#3C4563" d="M15.997 12.665A3.342 3.342 0 0 0 12.663 16a3.342 3.342 0 0 0 3.334 3.335A3.342 3.342 0 0 0 19.332 16a3.342 3.342 0 0 0-3.335-3.335ZM26 16c0-1.38.012-2.75-.065-4.128-.078-1.6-.443-3.022-1.614-4.193-1.173-1.173-2.591-1.536-4.192-1.613C18.747 5.988 17.378 6 16 6c-1.381 0-2.75-.013-4.128.065-1.601.077-3.022.443-4.193 1.613-1.173 1.174-1.536 2.592-1.613 4.193C5.988 13.253 6 14.622 6 16c0 1.378-.013 2.75.065 4.128.077 1.6.443 3.022 1.613 4.193 1.174 1.173 2.592 1.536 4.193 1.613 1.381.078 2.75.065 4.128.065 1.38 0 2.75.013 4.128-.065 1.6-.077 3.021-.443 4.192-1.613 1.174-1.174 1.536-2.592 1.614-4.193.08-1.379.065-2.747.065-4.128Zm-10.002 5.131A5.124 5.124 0 0 1 10.867 16a5.124 5.124 0 0 1 5.13-5.131c2.84 0 5.131 2.292 5.131 5.131a5.124 5.124 0 0 1-5.13 5.131Zm5.341-9.274a1.197 1.197 0 0 1-1.198-1.198c0-.663.535-1.198 1.198-1.198a1.197 1.197 0 0 1 .848 2.046 1.197 1.197 0 0 1-.848.35Z"/></svg>