<svg xmlns="http://www.w3.org/2000/svg" width="32" height="32" fill="none"><path fill="#3C4563" d="M28 8.376a9.669 9.669 0 0 1-2.832.78 5.011 5.011 0 0 0 2.163-2.78c-.964.588-2.02 1-3.12 1.219a4.908 4.908 0 0 0-1.636-1.181A4.8 4.8 0 0 0 20.616 6C17.891 6 15.7 8.266 15.7 11.047c0 .39.046.781.12 1.157-4.08-.219-7.72-2.219-10.14-5.28a5.109 5.109 0 0 0-.67 2.546c0 1.752.869 3.296 2.193 4.205a4.868 4.868 0 0 1-2.224-.642v.062c0 2.452 1.69 4.485 3.943 4.952-.423.113-.858.17-1.295.172-.32 0-.623-.033-.93-.077.624 2 2.438 3.453 4.598 3.5a9.701 9.701 0 0 1-6.106 2.157c-.412 0-.793-.015-1.188-.062A13.674 13.674 0 0 0 11.554 26c9.045 0 13.994-7.686 13.994-14.358 0-.219 0-.438-.014-.657A10.748 10.748 0 0 0 28 8.375Z"/></svg>