<svg xmlns="http://www.w3.org/2000/svg" width="32" height="32" fill="none"><path fill="#888B97" d="M23.8 14.77c2.271 0 4.2 1.892 4.2 4.307v3.692h-1.8V24H25v-1.23H7V24H5.8v-1.23H4v-3.693c0-2.33 1.863-4.308 4.2-4.308h15.6ZM22.6 8c1.613 0 3 1.33 3 3.077v2.94a3.654 3.654 0 0 0-1.8-.478l-1.2-.001c0-1.054-.841-1.846-1.8-1.846h-3.6c-.461 0-.881.178-1.2.47a1.769 1.769 0 0 0-1.2-.47h-3.6c-.994 0-1.8.826-1.8 1.846H8.2c-.644 0-1.254.172-1.8.479v-2.94C6.4 9.422 7.694 8 9.4 8h13.2Zm-7.8 4.923c.326 0 .6.307.6.616l-4.8-.001c0-.377.292-.615.6-.615h3.6Zm6 .004c.34-.004.6.296.6.61h-4.8c0-.381.292-.614.6-.614l3.6.004Z"/></svg>