<svg xmlns="http://www.w3.org/2000/svg" width="32" height="32" fill="none"><path fill="#888B97" d="m27.384 10.629-10.027-6.25a2.581 2.581 0 0 0-2.712.011L4.608 10.634c-.623.391-.795 1.191-.385 1.786.41.594 1.248.76 1.872.367l9.916-6.169 9.903 6.174c.228.14.482.207.733.207.444 0 .877-.207 1.136-.588.406-.598.226-1.395-.4-1.782Z"/><path fill="#888B97" d="M24.21 18.753a.928.928 0 0 0-.902-.783h-.512l-.194-2.074C22.394 13.678 20.599 12 18.425 12h-4.849c-2.174 0-3.97 1.679-4.177 3.896l-.194 2.074h-.512a.93.93 0 0 0-.904.783l-.761 4.424a1.92 1.92 0 0 0 .406 1.538c.335.41.83.654 1.348.673v.734c0 1.04.813 1.878 1.828 1.878h.577c1.015 0 1.84-.838 1.84-1.878V25.4h5.952v.721c0 1.04.819 1.88 1.833 1.88h.578c1.014 0 1.834-.84 1.834-1.88v-.732a1.823 1.823 0 0 0 1.344-.67 1.92 1.92 0 0 0 .405-1.538l-.762-4.427Zm-13.82 4.94c-.855 0-1.55-.71-1.55-1.59 0-.878.695-1.59 1.55-1.59.857 0 1.552.711 1.552 1.59 0 .88-.695 1.59-1.551 1.59Zm.387-5.723.18-1.913c.13-1.391 1.256-2.439 2.62-2.439h.279v.602a.92.92 0 0 0 .912.937h2.464c.509 0 .92-.416.92-.937v-.601h.273c1.363 0 2.49 1.047 2.619 2.439l.18 1.913H10.777Zm10.831 5.723c-.856 0-1.55-.71-1.55-1.59 0-.878.694-1.59 1.55-1.59.857 0 1.551.711 1.551 1.59 0 .88-.694 1.59-1.55 1.59Z"/></svg>